<svg width="24" height="24" viewBox="0 0 24 24" fill="currentColor" xmlns="http://www.w3.org/2000/svg">
  <path d="M8.5 20.001V23.5H15.5L15.5 20.0011L15.5 20.001V20.0004L15.4999 19.9966L15.4993 19.9717C15.4985 19.9483 15.4969 19.9117 15.4935 19.8637C15.4866 19.7677 15.4726 19.6271 15.4443 19.4572C15.3873 19.1149 15.2741 18.6662 15.0528 18.2236C14.8324 17.7829 14.5098 17.3574 14.0352 17.041C13.5636 16.7267 12.9125 16.5 12 16.5C11.0875 16.5 10.4364 16.7267 9.96485 17.041C9.49022 17.3574 9.16756 17.7829 8.94721 18.2236C8.72589 18.6662 8.61274 19.1149 8.5557 19.4572C8.52737 19.6271 8.5134 19.7677 8.50654 19.8637C8.50312 19.9117 8.50148 19.9483 8.5007 19.9717L8.50006 19.9966L8.5 20.001Z" stroke="currentColor"/>
  <path d="M12.001 15.5L23.5 15.5L23.5 8.5L12.0011 8.5L12.0008 8.5L12.0004 8.5L12 8.5L11.9966 8.50006L11.9717 8.5007C11.9483 8.50148 11.9117 8.50312 11.8637 8.50654C11.7677 8.5134 11.6271 8.52737 11.4572 8.5557C11.1149 8.61274 10.6662 8.72589 10.2236 8.94721C9.78292 9.16756 9.35745 9.49022 9.04103 9.96485C8.72669 10.4364 8.5 11.0875 8.5 12C8.5 12.9125 8.72669 13.5636 9.04103 14.0351C9.35745 14.5098 9.78292 14.8324 10.2236 15.0528C10.6662 15.2741 11.1149 15.3873 11.4572 15.4443C11.6271 15.4726 11.7677 15.4866 11.8637 15.4935C11.9117 15.4969 11.9483 15.4985 11.9717 15.4993L11.9966 15.4999L12 15.5L12.0004 15.5L12.001 15.5Z" stroke="currentColor"/>
  <path d="M12.001 7.5L23.5 7.5L23.5 0.5L12.0011 0.499999L12.0008 0.499999L12.0004 0.5L12 0.5L11.9966 0.500057L11.9717 0.500699C11.9483 0.501479 11.9117 0.503116 11.8637 0.506542C11.7677 0.513405 11.6271 0.527373 11.4572 0.555697C11.1149 0.612739 10.6662 0.725892 10.2236 0.947213C9.78292 1.16756 9.35745 1.49022 9.04103 1.96485C8.72669 2.43635 8.5 3.08749 8.5 4C8.5 4.91251 8.72669 5.56365 9.04103 6.03515C9.35745 6.50978 9.78292 6.83244 10.2236 7.05279C10.6662 7.27411 11.1149 7.38726 11.4572 7.4443C11.6271 7.47263 11.7677 7.48659 11.8637 7.49346C11.9117 7.49688 11.9483 7.49852 11.9717 7.4993L11.9966 7.49994L12 7.5L12.0004 7.5L12.001 7.5Z" stroke="currentColor"/>
  <path d="M0.5 12.001V23.5H7.5L7.5 12.0011L7.5 12.0008L7.5 12.0004V12L7.49994 11.9966L7.4993 11.9717C7.49852 11.9483 7.49688 11.9117 7.49346 11.8637C7.4866 11.7677 7.47263 11.6271 7.4443 11.4572C7.38726 11.1149 7.27411 10.6662 7.05279 10.2236C6.83244 9.78292 6.50978 9.35745 6.03515 9.04103C5.56365 8.72669 4.91251 8.5 4 8.5C3.08749 8.5 2.43635 8.72669 1.96485 9.04103C1.49022 9.35745 1.16756 9.78292 0.947214 10.2236C0.725892 10.6662 0.612739 11.1149 0.555697 11.4572C0.527373 11.6271 0.513405 11.7677 0.506542 11.8637C0.503116 11.9117 0.501479 11.9483 0.500699 11.9717L0.500057 11.9966L0.5 12L0.5 12.0004L0.5 12.001Z" stroke="currentColor"/>
  <path d="M0.5 3.99897V0.5H7.5L7.5 3.99893L7.5 3.99897V3.99956L7.49994 4.00341L7.4993 4.02826C7.49852 4.05166 7.49688 4.08829 7.49346 4.13625C7.4866 4.23233 7.47263 4.37286 7.4443 4.5428C7.38726 4.88505 7.27411 5.33375 7.05279 5.77639C6.83244 6.21708 6.50978 6.64255 6.03515 6.95897C5.56365 7.27331 4.91251 7.5 4 7.5C3.08749 7.5 2.43635 7.27331 1.96485 6.95897C1.49022 6.64255 1.16756 6.21708 0.947214 5.77639C0.725892 5.33375 0.612739 4.88505 0.555697 4.5428C0.527373 4.37286 0.513405 4.23233 0.506542 4.13625C0.503116 4.08829 0.501479 4.05166 0.500699 4.02826L0.500057 4.00341L0.5 3.99897Z" stroke="currentColor"/>
</svg>